<svg width="20" height="20" viewBox="0 0 20 20" fill="none" xmlns="http://www.w3.org/2000/svg">
<path d="M7.55365 11.6569L7.55375 11.6567C7.58074 11.5953 7.59054 11.5076 7.54441 11.3807C7.49615 11.248 7.39521 11.1037 7.2574 10.9888L7.7377 10.4129L7.25857 10.9898C6.50116 10.3606 5.97608 9.44482 5.85961 8.38795L5.85958 8.38775C5.62087 6.2163 7.18463 4.2646 9.35481 4.02576C11.5237 3.78708 13.4782 5.35007 13.7173 7.52027L7.55365 11.6569ZM7.55365 11.6569L6.7846 13.4095C6.78459 13.4095 6.78457 13.4095 6.78456 13.4096C6.23413 14.6613 7.24465 16.0447 8.60825 15.8938C8.60835 15.8938 8.60845 15.8938 8.60854 15.8938L12.5826 15.4552C12.583 15.4551 12.5834 15.4551 12.5838 15.455C13.9483 15.3071 14.6344 13.7361 13.8242 12.6328C13.8241 12.6328 13.8241 12.6328 13.8241 12.6328L12.7292 11.1416L12.7285 11.1407M7.55365 11.6569L12.7285 11.1407M12.7285 11.1407C12.6892 11.0873 12.6598 11.0028 12.679 10.8645C12.6991 10.7205 12.7697 10.5544 12.8823 10.4116M12.7285 11.1407L12.8823 10.4116M12.8823 10.4116C13.507 9.62647 13.8366 8.60064 13.7173 7.5206L12.8823 10.4116ZM5.97974 1.58325H14.0172C16.4467 1.58325 18.4163 3.55279 18.4163 5.98169V14.0182C18.4163 16.447 16.4467 18.4166 14.0172 18.4166H5.97974C3.55075 18.4166 1.58301 16.4475 1.58301 14.0182V5.98169C1.58301 3.55234 3.55075 1.58325 5.97974 1.58325Z" fill="#F9FAFB" stroke="#F9FAFB" stroke-width="1.5"/>
</svg>
